<svg width="62" height="62" viewBox="0 0 62 62" fill="none" xmlns="http://www.w3.org/2000/svg">
<path opacity="0.58" d="M0 0H62V62H0V0Z" fill="white"/>
<path d="M5.36206 62H33.0925C33.3329 62 33.5641 61.9012 33.7351 61.7335L38.2471 57.2355L46.7187 58.3086L48.186 61.1366C48.467 61.6781 49.2296 61.8094 49.6656 61.3272L52.5512 58.1346C52.7117 57.9567 52.7957 57.7228 52.7846 57.4835L52.6331 54.2267C53.5228 53.581 54.1372 52.554 54.2779 51.4615L55.3918 42.8163C56.9692 43.5604 58.8948 42.5207 59.1193 40.7785L60.5571 29.6189C60.8152 27.6162 59.6005 25.6335 57.6919 24.9656C58.0494 22.8047 56.7376 20.6304 54.536 20.1711L56.0301 8.24971C56.256 6.44719 54.9153 4.72966 53.1111 4.50388L17.3164 0.026087C15.4771 -0.202966 13.7936 1.10186 13.5634 2.93707C13.5611 2.95571 13.5593 2.9746 13.5582 2.99336L12.9518 7.83192H5.36206C3.50833 7.83192 2 9.33674 2 11.1862V46.2484C2.03826 47.437 3.76862 47.4633 3.81596 46.2484V11.1862C3.81596 10.3379 4.50953 9.64788 5.36206 9.64788H41.4362C42.2886 9.64788 42.9822 10.3379 42.9822 11.1862V49.4199H35.5466C33.6928 49.4199 32.1845 50.9247 32.1845 52.7743V60.1839H5.36206C4.50953 60.1839 3.81596 59.4939 3.81596 58.6456V51.0849C3.81596 50.5833 3.40943 50.1769 2.90798 50.1769C2.40653 50.1769 2 50.5833 2 51.0849V58.6456C2 60.4952 3.50821 62 5.36206 62V62ZM50.953 57.1941L49.1953 59.1389L47.9879 56.8119L48.6551 54.676C49.3452 54.9698 50.1071 55.0668 50.8489 54.9575L50.953 57.1941ZM58.2499 27.5187C58.6625 28.0533 58.8423 28.7168 58.7559 29.3867L57.3181 40.5463C57.1872 41.5624 55.5727 41.3293 55.7111 40.3374L56.0898 37.3987C56.2399 36.2342 54.4386 36.0029 54.2887 37.1668L52.4767 51.2294C52.3202 52.4436 51.1788 53.3244 49.9646 53.168C48.7505 53.0116 47.8695 51.87 48.0259 50.6558L50.6858 30.0121L55.1366 30.5856L54.9044 32.3873C54.7544 33.5517 56.5555 33.7835 56.7055 32.6193L57.4501 26.8403C57.7573 27.006 58.0302 27.2341 58.2499 27.5187V27.5187ZM55.9297 24.4301C55.7427 25.8816 55.5556 27.333 55.3687 28.7843L50.9179 28.2108L51.4789 23.8565C51.5556 23.2621 51.8591 22.7332 52.3335 22.367C52.808 22.0008 53.3968 21.8413 53.991 21.9178C55.2181 22.0762 56.0878 23.2032 55.9297 24.4301ZM41.4361 7.83192H14.7819L15.3653 3.17714C15.3674 3.16067 15.369 3.14433 15.3702 3.12774C15.4926 2.30439 16.2565 1.72352 17.091 1.82824L52.8854 6.30567C53.7191 6.4099 54.3326 7.18786 54.228 8.02369L52.7009 20.2082C52.1713 20.3431 51.6697 20.5854 51.224 20.9293C50.3654 21.5919 49.8163 22.5492 49.6778 23.6247L49.0007 28.8794V28.8796L46.2247 50.4238C46.0839 51.5161 46.4163 52.6665 47.1142 53.5178L46.2097 56.4136L39.876 55.6113L44.5309 50.971C44.694 50.7874 44.7979 50.5793 44.7979 50.3279V11.1862C44.798 9.33674 43.2899 7.83192 41.4361 7.83192V7.83192ZM35.5464 51.2359H41.6932L34.0004 58.9046V52.7743C34.0003 51.9262 34.6939 51.2359 35.5464 51.2359Z" fill="#CB8734"/>
<path fill-rule="evenodd" clip-rule="evenodd" d="M55.4872 42.859C57.0457 43.5184 58.8993 42.4858 59.1193 40.7785L60.5571 29.6189C60.8152 27.6162 59.6005 25.6335 57.6919 24.9656C58.0494 22.8047 56.7376 20.6304 54.536 20.1711L56.0301 8.24971C56.256 6.44719 54.9153 4.72966 53.1111 4.50388L17.3164 0.026087C15.4771 -0.202966 13.7936 1.10186 13.5634 2.93707C13.5611 2.95571 13.5593 2.9746 13.5582 2.99336L12.9518 7.83192H5.36206C3.50833 7.83192 2 9.33674 2 11.1862V46.2484C2.03826 47.437 3.76862 47.4633 3.81596 46.2484V11.1862C3.81596 10.3379 4.50953 9.64788 5.36206 9.64788H41.4362C42.2886 9.64788 42.9822 10.3379 42.9822 11.1862V49.4199H35.5466C33.6928 49.4199 32.1845 50.9247 32.1845 52.7743V60.1839H5.36206C4.50953 60.1839 3.81596 59.4939 3.81596 58.6456V51.0849C3.81596 50.5833 3.40943 50.1769 2.90798 50.1769C2.40653 50.1769 2 50.5833 2 51.0849V58.6456C2 60.4952 3.50821 62 5.36206 62H33.0925C33.3329 62 33.5641 61.9012 33.7351 61.7335L38.2471 57.2355L46.7187 58.3086L48.186 61.1366C48.467 61.6781 49.2295 61.8094 49.6656 61.3272L52.5512 58.1346C52.7117 57.9567 52.7957 57.7228 52.7846 57.4835L52.6331 54.2267C53.5228 53.581 54.1372 52.554 54.2779 51.4615L55.3918 42.8163C55.4235 42.8313 55.4552 42.8455 55.4872 42.859ZM52.477 58.0675C52.6199 57.9092 52.6946 57.7011 52.6847 57.4881L52.5307 54.1775L52.5744 54.1458C53.442 53.5161 54.0416 52.5136 54.1787 51.4487L55.3102 42.6673L55.4345 42.7259C56.9509 43.4412 58.8044 42.4401 59.0201 40.7657L60.458 29.6062C60.7101 27.65 59.5226 25.7122 57.6589 25.06L57.5795 25.0322L57.5933 24.9493C57.9429 22.8357 56.6592 20.7162 54.5156 20.269L54.4253 20.2502L55.9308 8.23728C56.1498 6.48983 54.8484 4.82206 53.0987 4.6031L17.304 0.12532C17.304 0.125318 17.3041 0.125323 17.304 0.12532C15.5193 -0.0969057 13.886 1.16928 13.6627 2.94934C13.6606 2.96621 13.659 2.98291 13.658 2.99916L13.6577 3.00583L13.04 7.93192H5.36206C3.56334 7.93192 2.1 9.39219 2.1 11.1862V46.2467C2.11787 46.7786 2.50796 47.0467 2.90531 47.0497C3.10502 47.0512 3.30232 46.9849 3.4514 46.8531C3.59869 46.7229 3.7047 46.5237 3.71596 46.2464V11.1862C3.71596 10.2822 4.45478 9.54788 5.36206 9.54788H41.4362C42.3434 9.54788 43.0822 10.2822 43.0822 11.1862V49.5199H35.5466C33.7478 49.5199 32.2845 50.9802 32.2845 52.7743V60.2839H5.36206C4.45478 60.2839 3.71596 59.5496 3.71596 58.6456V51.0849C3.71596 50.6386 3.35421 50.2769 2.90798 50.2769C2.46175 50.2769 2.1 50.6386 2.1 51.0849V58.6456C2.1 60.4397 3.56323 61.9 5.36206 61.9H33.0925C33.3054 61.9 33.5117 61.8124 33.6647 61.6625C33.6648 61.6624 33.6646 61.6626 33.6647 61.6625L38.2112 57.1302L46.7833 58.216L48.2747 61.0905C48.5252 61.5731 49.2044 61.6882 49.5914 61.2602C49.5914 61.2602 49.5914 61.2602 49.5914 61.2602L52.477 58.0675ZM51.0548 57.2306L49.1729 59.3128L47.8802 56.8214L48.5926 54.5407L48.6943 54.584C49.3673 54.8706 50.1107 54.9652 50.8343 54.8585L50.9437 54.8424L51.0548 57.2306ZM57.5441 26.8936C57.813 27.0537 58.0528 27.2635 58.2499 27.5187C58.6625 28.0533 58.8423 28.7168 58.7559 29.3867L57.3181 40.5463C57.1872 41.5624 55.5727 41.3293 55.7111 40.3374L56.0898 37.3987C56.2399 36.2342 54.4386 36.0029 54.2887 37.1668L52.4767 51.2294C52.3202 52.4436 51.1788 53.3244 49.9646 53.168C48.7505 53.0116 47.8695 51.87 48.0259 50.6558L50.6858 30.0121L55.1366 30.5856L54.9044 32.3873C54.7544 33.5517 56.5555 33.7835 56.7055 32.6193L57.4501 26.8403C57.4818 26.8574 57.5132 26.8751 57.5441 26.8936ZM55.612 40.3236L55.9906 37.386C56.0245 37.1228 55.9484 36.9193 55.8183 36.7743C55.6864 36.6273 55.4938 36.5351 55.289 36.5088C55.0841 36.4824 54.8744 36.5229 54.7095 36.6317C54.5469 36.739 54.4217 36.9166 54.3879 37.1796L52.5759 51.2422C52.4123 52.5111 51.2208 53.4307 49.9519 53.2672C48.6829 53.1037 47.7633 51.912 47.9268 50.6431L50.5994 29.9002L55.2486 30.4992L55.0036 32.4001C54.9697 32.6632 55.0458 32.8667 55.1759 33.0117C55.3078 33.1587 55.5004 33.251 55.7052 33.2773C55.91 33.3037 56.1197 33.2633 56.2846 33.1545C56.4472 33.0472 56.5724 32.8695 56.6063 32.6065L57.3696 26.6832L57.4976 26.7523C57.8168 26.9245 58.1006 27.1616 58.3291 27.4576C58.7578 28.0132 58.9448 28.7032 58.8551 29.3995L57.4173 40.5591C57.3808 40.8422 57.2389 41.0447 57.0456 41.1664C56.855 41.2865 56.6207 41.3242 56.4 41.2939C56.1793 41.2636 55.9639 41.1642 55.8118 40.9991C55.6579 40.832 55.5735 40.6011 55.612 40.3236C55.6121 40.3234 55.612 40.3239 55.612 40.3236ZM55.4551 28.8963L50.806 28.2972L51.3797 23.8438L51.4789 23.8565L50.9179 28.2108L55.3687 28.7843L55.9297 24.4301C56.0878 23.2032 55.2181 22.0762 53.991 21.9178C53.3968 21.8413 52.808 22.0007 52.3335 22.367C51.8591 22.7332 51.5556 23.2621 51.4789 23.8565L51.3797 23.8438C51.4598 23.223 51.777 22.6702 52.2724 22.2878C52.7679 21.9054 53.3833 21.7387 54.0038 21.8186C55.2856 21.9841 56.1941 23.1611 56.0289 24.4429L55.4551 28.8963ZM14.6686 7.93192L15.2661 3.16473C15.2661 3.16472 15.2661 3.16474 15.2661 3.16473C15.2679 3.15015 15.2693 3.13551 15.2704 3.12046L15.271 3.113C15.4014 2.23565 16.2152 1.61758 17.1034 1.72902C17.1034 1.72902 17.1034 1.72901 17.1034 1.72902L52.8979 6.20644C53.7856 6.31744 54.4388 7.14477 54.3273 8.03612L52.7917 20.2882L52.7256 20.3051C52.2092 20.4367 51.72 20.6729 51.285 21.0085C50.4475 21.6549 49.9121 22.5882 49.777 23.6375L49.1007 28.8858V28.8925L46.3239 50.4365C46.1867 51.5014 46.511 52.6243 47.1915 53.4544L47.2257 53.4961L46.2802 56.5234L39.6606 55.6849L44.4582 50.9023C44.6086 50.7323 44.6979 50.5475 44.6979 50.3279V11.1862C44.698 9.39218 43.2349 7.93192 41.4361 7.93192H14.6686ZM44.5309 50.971L39.876 55.6113L46.2097 56.4136L47.1142 53.5178C46.4163 52.6665 46.0839 51.5161 46.2247 50.4238L49.0007 28.8796L49.6778 23.6247C49.8163 22.5492 50.3654 21.5919 51.224 20.9293C51.6697 20.5854 52.1713 20.3431 52.7009 20.2082L54.228 8.02369C54.3326 7.18786 53.7191 6.4099 52.8854 6.30567L17.091 1.82824C16.2565 1.72352 15.4926 2.30439 15.3702 3.12774C15.369 3.14433 15.3674 3.16067 15.3653 3.17714L14.7819 7.83192H41.4361C43.2899 7.83192 44.798 9.33674 44.7979 11.1862V50.3279C44.7979 50.5793 44.694 50.7874 44.5309 50.971ZM41.9352 51.1359L33.9004 59.1455V52.7743C33.9003 51.8705 34.6391 51.1359 35.5464 51.1359H41.9352ZM50.953 57.1941L50.8489 54.9575C50.8158 54.9624 50.7826 54.9668 50.7494 54.9709C50.0724 55.0537 49.3821 54.9657 48.7479 54.7142C48.7169 54.7018 48.6859 54.6891 48.6551 54.676L47.9879 56.8119L49.1953 59.1389L50.953 57.1941ZM34.0004 58.9046V52.7743C34.0003 51.9262 34.6939 51.2359 35.5464 51.2359H41.6932L34.0004 58.9046Z" fill="white"/>
<path d="M39.3993 20.0322V13.8772C39.3993 13.3756 38.9929 12.9692 38.4914 12.9692H8.18435C7.6829 12.9692 7.27637 13.3756 7.27637 13.8772V20.0322C7.27637 20.5338 7.6829 20.9402 8.18435 20.9402H38.4914C38.9929 20.9402 39.3993 20.5338 39.3993 20.0322ZM37.5834 19.1242H9.09232V14.7852H37.5834V19.1242Z" fill="#CB8734"/>
<path fill-rule="evenodd" clip-rule="evenodd" d="M37.6834 19.2242H8.99232V14.6852H37.6834V19.2242ZM39.2993 20.0322V13.8772C39.2993 13.4309 38.9377 13.0692 38.4914 13.0692H8.18435C7.73812 13.0692 7.37637 13.4309 7.37637 13.8772V20.0322C7.37637 20.4786 7.73812 20.8402 8.18435 20.8402H38.4914C38.9377 20.8402 39.2993 20.4786 39.2993 20.0322ZM39.3993 13.8772V20.0322C39.3993 20.5338 38.9929 20.9402 38.4914 20.9402H8.18435C7.6829 20.9402 7.27637 20.5338 7.27637 20.0322V13.8772C7.27637 13.3756 7.6829 12.9692 8.18435 12.9692H38.4914C38.9929 12.9692 39.3993 13.3756 39.3993 13.8772ZM37.5834 19.1242V14.7852H9.09232V19.1242H37.5834Z" fill="white"/>
<path d="M37.6332 25.5664H9.16502C7.96274 25.6081 7.96371 27.3412 9.16502 27.3824H37.6332C38.8355 27.3408 38.8346 25.6076 37.6332 25.5664Z" fill="#CB8734"/>
<path fill-rule="evenodd" clip-rule="evenodd" d="M37.6314 25.6664H9.16679C8.09583 25.7051 8.09611 27.2441 9.16677 27.2824H37.6314C38.7023 27.2438 38.7023 25.7047 37.6314 25.6664ZM37.6332 25.5664H9.16502C7.96274 25.6081 7.96371 27.3412 9.16502 27.3824H37.6332C38.8355 27.3408 38.8346 25.6076 37.6332 25.5664Z" fill="white"/>
<path d="M37.6331 31.7407H18.875C17.6727 31.7824 17.6737 33.5155 18.875 33.5567H37.6331C38.8354 33.5152 38.8345 31.7819 37.6331 31.7407Z" fill="#CB8734"/>
<path fill-rule="evenodd" clip-rule="evenodd" d="M37.6314 31.8407H18.8768C17.8058 31.8794 17.8061 33.4184 18.8767 33.4567H37.6313C38.7022 33.4181 38.7022 31.879 37.6314 31.8407ZM37.6331 31.7407H18.875C17.6727 31.7824 17.6737 33.5155 18.875 33.5567H37.6331C38.8354 33.5152 38.8345 31.7819 37.6331 31.7407Z" fill="white"/>
<path d="M38.5411 38.823C38.5411 38.3215 38.1347 37.915 37.6331 37.915H18.875C17.6727 37.9567 17.6737 39.6898 18.875 39.731H37.6331C38.1347 39.731 38.5411 39.3246 38.5411 38.823Z" fill="#CB8734"/>
<path fill-rule="evenodd" clip-rule="evenodd" d="M38.4411 38.823C38.4411 38.3767 38.0794 38.015 37.6331 38.015H18.8768C17.8058 38.0538 17.8061 39.5927 18.8767 39.631H37.6331C38.0794 39.631 38.4411 39.2694 38.4411 38.823ZM18.875 39.731C17.6737 39.6898 17.6727 37.9567 18.875 37.915H37.6331C38.1347 37.915 38.5411 38.3215 38.5411 38.823C38.5411 39.3246 38.1347 39.731 37.6331 39.731H18.875Z" fill="white"/>
<path d="M11.2153 39.5825C10.3535 39.5888 10.0844 39.5453 9.42202 39.1093C9.00314 38.8339 8.44019 38.9497 8.16429 39.3685C7.88863 39.7874 8.00461 40.3505 8.42349 40.6263C9.14043 41.0982 9.6702 41.2909 10.3135 41.3619C10.134 43.1957 12.3969 43.076 12.1295 41.2718C13.452 40.8972 14.3007 39.7471 14.4927 38.6122C14.7465 37.1115 13.9379 35.755 12.4808 35.2366C11.7464 34.9754 9.89974 34.5877 10.1065 33.4948C10.1644 33.1883 10.3686 32.8178 10.7678 32.6968C11.3386 32.5236 11.9613 32.6371 12.3894 32.9472C12.3894 32.9472 12.9993 33.7915 13.799 33.0503C14.539 32.3643 13.6249 31.6162 13.6249 31.6162C13.3413 31.3531 12.8156 31.0288 12.1296 30.8772C12.2897 29.1286 10.0898 29.2126 10.3137 30.9397C9.29696 31.2275 8.51755 32.1241 8.32216 33.1571C8.13741 34.1341 8.45412 35.0817 9.1489 35.6302C9.72008 36.081 10.5092 36.4626 11.8722 36.9475C12.7749 37.2686 12.7533 38.0068 12.7022 38.3092C12.5991 38.9182 12.0899 39.5766 11.2153 39.5825V39.5825Z" fill="#CB8734"/>
<path fill-rule="evenodd" clip-rule="evenodd" d="M13.6249 31.6162C13.3413 31.3531 12.8156 31.0288 12.1296 30.8772C12.2897 29.1286 10.0898 29.2126 10.3137 30.9397C9.29696 31.2275 8.51755 32.1241 8.32216 33.1571C8.13741 34.1341 8.45412 35.0817 9.1489 35.6302C9.72008 36.081 10.5092 36.4626 11.8722 36.9475C12.7749 37.2686 12.7533 38.0068 12.7022 38.3092C12.5991 38.9182 12.0899 39.5766 11.2153 39.5825C10.3535 39.5888 10.0844 39.5453 9.42202 39.1093C9.00314 38.8339 8.44019 38.9497 8.16429 39.3685C7.88863 39.7874 8.00461 40.3505 8.42349 40.6263C9.14043 41.0982 9.6702 41.2909 10.3135 41.3619C10.134 43.1957 12.3969 43.076 12.1295 41.2718C13.452 40.8972 14.3007 39.7471 14.4927 38.6122C14.7465 37.1115 13.9379 35.755 12.4808 35.2366C12.3771 35.1997 12.2511 35.1603 12.1118 35.1167C11.2656 34.8517 9.92896 34.4333 10.1065 33.4948C10.1644 33.1883 10.3686 32.8178 10.7678 32.6968C11.3386 32.5236 11.9613 32.6371 12.3894 32.9472C12.3894 32.9472 12.9993 33.7915 13.799 33.0503C14.539 32.3643 13.6249 31.6162 13.6249 31.6162ZM12.4704 32.8886L12.4713 32.8897L12.4754 32.8952C12.4793 32.9002 12.4854 32.9078 12.4936 32.9176C12.5101 32.9371 12.5348 32.9646 12.5668 32.9957C12.6314 33.0584 12.7237 33.1331 12.8368 33.1862C12.9492 33.2389 13.0805 33.2696 13.2268 33.248C13.3728 33.2264 13.543 33.1513 13.731 32.977C13.9008 32.8196 13.9692 32.6655 13.9846 32.5259C14.0002 32.3841 13.9624 32.2459 13.9 32.1206C13.8375 31.9954 13.7528 31.8881 13.6824 31.8114C13.6475 31.7733 13.6167 31.7433 13.5948 31.7231C13.5839 31.713 13.5752 31.7053 13.5695 31.7003L13.5631 31.6949L13.5617 31.6937L13.5567 31.6897C13.2861 31.4385 12.7764 31.1226 12.108 30.9749L12.022 30.9559L12.03 30.8681C12.0681 30.4518 11.965 30.1577 11.8059 29.9714C11.6464 29.7846 11.4233 29.6969 11.2014 29.705C10.9793 29.7131 10.7583 29.8172 10.6047 30.0165C10.4515 30.2152 10.3596 30.5163 10.4128 30.9269L10.4239 31.0124L10.3409 31.0359C9.36273 31.3128 8.60917 32.1778 8.42041 33.1757C8.24154 34.1216 8.54949 35.0295 9.21086 35.5517M12.4704 32.8886L12.4611 32.8756L12.4481 32.8662C11.994 32.5374 11.3387 32.419 10.7387 32.6011C10.291 32.7368 10.0701 33.1487 10.0083 33.4762C10.0083 33.4762 10.0083 33.4762 10.0083 33.4762M8.47848 40.5427C8.10574 40.2973 8.00252 39.7963 8.2478 39.4235C8.49331 39.0508 8.99424 38.9478 9.36704 39.1929" fill="white"/>
<path d="M9.16502 55.9898H26.1615C27.3638 55.9481 27.3629 54.215 26.1615 54.1738H9.16502C7.96274 54.2155 7.96371 55.9486 9.16502 55.9898V55.9898Z" fill="#CB8734"/>
<path fill-rule="evenodd" clip-rule="evenodd" d="M9.16502 55.9898H26.1615C27.3638 55.9481 27.3629 54.215 26.1615 54.1738H9.16502C7.96274 54.2155 7.96371 55.9486 9.16502 55.9898ZM9.16679 54.2738C8.09583 54.3125 8.09611 55.8515 9.16677 55.8898H26.1598C27.2307 55.8511 27.2305 54.3121 26.1598 54.2738H9.16679Z" fill="white"/>
</svg>
