<?xml version="1.0" standalone="no"?>
<!DOCTYPE svg PUBLIC "-//W3C//DTD SVG 20010904//EN"
 "http://www.w3.org/TR/2001/REC-SVG-20010904/DTD/svg10.dtd">
<svg version="1.0" xmlns="http://www.w3.org/2000/svg"
 width="1280.000000pt" height="1280.000000pt" viewBox="0 0 1280.000000 1280.000000"
 preserveAspectRatio="xMidYMid meet">
<metadata>
Created by potrace 1.14, written by Peter Selinger 2001-2017
</metadata>
<g transform="translate(0.000000,1280.000000) scale(0.100000,-0.100000)"
fill="#000000" stroke="none">
<path d="M898 11068 c59 -99 94 -170 86 -178 -15 -13 -157 -53 -194 -55 -37
-1 -36 1 -39 -72 -1 -17 -7 -23 -25 -23 -29 0 -32 -7 -28 -65 4 -39 7 -45 27
-45 18 0 24 -6 27 -32 5 -44 -1 -69 -15 -67 -36 4 -47 -2 -43 -23 2 -15 10
-23 25 -24 31 -2 34 -7 33 -71 l0 -58 -31 2 c-28 1 -31 -1 -31 -26 0 -26 3
-28 30 -26 27 2 30 0 31 -29 3 -113 3 -2195 0 -2210 -6 -29 -62 -46 -156 -46
-52 0 -85 -4 -85 -10 0 -20 33 -61 60 -75 15 -8 43 -30 62 -49 34 -34 53 -40
103 -37 19 2 20 -4 18 -96 0 -54 -2 -101 -2 -105 -1 -4 -14 -6 -30 -4 -43 5
-51 -5 -48 -59 l2 -50 38 2 c38 2 39 1 39 -52 0 -54 -1 -55 -29 -50 -35 6 -53
-5 -49 -30 2 -16 10 -20 40 -19 39 1 38 3 38 -81 0 -14 0 -29 -1 -35 -1 -5
-19 -10 -41 -10 -36 0 -40 -3 -40 -24 0 -14 5 -28 12 -32 7 -5 8 -3 3 6 -6 9
-4 11 6 4 8 -4 25 -8 38 -9 l24 0 0 -1009 c0 -935 -1 -1009 -16 -1018 -10 -5
-25 -17 -35 -26 -9 -10 -51 -47 -92 -82 -41 -36 -88 -77 -105 -91 -272 -237
-325 -283 -336 -290 -5 -3 -45 -4 -89 -3 l-80 2 6 -26 c10 -42 42 -99 63 -114
15 -11 89 -14 350 -13 l331 0 1 -25 c0 -14 1 -595 1 -1292 1 -1152 2 -1267 17
-1270 9 -2 80 -3 159 -3 l142 1 0 -123 0 -123 5240 0 5240 0 1 153 c1 83 1
319 0 522 -1 336 1 367 14 343 21 -38 37 -35 30 4 -5 27 -4 30 10 18 8 -7 15
-8 15 -2 0 5 -13 15 -30 22 -24 10 -28 15 -20 30 13 25 13 30 -5 30 -21 0 -19
10 13 44 l27 31 -28 -24 -27 -25 2 805 3 804 55 0 55 0 3 38 c2 20 9 38 15 38
7 1 243 2 526 3 l513 1 28 33 c24 29 41 70 44 107 1 6 -34 10 -83 11 l-84 0
-66 57 c-112 96 -228 196 -245 212 -6 6 -74 64 -151 130 -77 66 -145 124 -151
130 -30 28 -143 126 -174 151 -19 16 -47 40 -61 54 -14 14 -43 39 -64 55 -21
17 -45 37 -54 46 -9 8 -45 40 -81 70 -35 30 -74 64 -86 76 -11 13 -23 21 -26
18 -2 -3 -4 483 -4 1079 l0 1084 125 0 126 0 50 -38 c72 -54 84 -58 152 -55
106 5 180 50 223 136 24 45 36 40 -105 42 -89 2 -90 2 -91 27 -1 14 -2 33 -2
42 -1 10 -24 29 -54 44 -44 22 -119 73 -138 94 -3 3 -84 68 -180 145 -96 77
-182 145 -190 152 -8 6 -35 28 -60 48 -25 20 -52 42 -60 48 -119 94 -176 141
-178 148 -2 5 -10 9 -17 9 -7 0 -15 4 -17 8 -1 4 -30 29 -63 55 -33 27 -69 56
-80 65 -11 9 -120 96 -241 193 -122 97 -230 184 -240 192 -11 9 -57 46 -104
84 -47 37 -92 73 -100 80 -62 50 -304 244 -335 268 -21 17 -43 35 -49 40 -6 6
-39 33 -74 60 -35 28 -71 57 -81 65 -10 8 -33 26 -51 40 -19 14 -52 41 -75 60
-22 19 -79 64 -125 100 -46 36 -95 75 -109 86 l-25 22 -61 -52 c-34 -28 -77
-63 -96 -78 -19 -15 -99 -80 -179 -144 -80 -64 -162 -130 -184 -147 -21 -18
-45 -36 -52 -40 -10 -6 -239 104 -697 333 -375 188 -688 346 -694 352 -7 6
-13 7 -13 4 0 -4 -13 2 -29 13 -16 12 -32 21 -36 21 -3 0 -217 106 -475 235
l-468 234 -898 -450 c-1811 -908 -3753 -1879 -3758 -1879 -3 0 -6 383 -6 851
0 749 2 850 15 845 8 -3 19 3 25 14 15 29 12 37 -15 44 -23 6 -25 11 -25 67 0
52 2 60 16 55 10 -4 22 1 30 11 19 25 18 29 -16 43 -26 11 -29 16 -28 57 0 33
4 43 14 39 8 -3 14 1 14 9 0 8 5 15 11 15 5 0 7 5 4 10 -3 6 -2 10 3 10 5 0
14 11 20 24 9 21 7 25 -29 45 -30 17 -39 28 -39 49 0 22 -8 31 -41 46 -22 11
-42 23 -45 27 -2 4 16 15 40 24 l43 17 -51 79 c-28 44 -69 107 -91 142 l-40
62 -294 3 -293 2 20 -32z"/>
</g>
</svg>
