<svg width="62" height="61" viewBox="0 0 62 61" fill="none" xmlns="http://www.w3.org/2000/svg">
<path d="M60.6675 30.3338C60.6675 47.0866 47.0866 60.6675 30.3338 60.6675C13.5809 60.6675 0 47.0866 0 30.3338C0 13.5809 13.5809 0 30.3338 0C47.0866 0 60.6675 13.5809 60.6675 30.3338Z" fill="white"/>
<path fill-rule="evenodd" clip-rule="evenodd" d="M30.3338 58.6675C45.9821 58.6675 58.6675 45.9821 58.6675 30.3338C58.6675 14.6855 45.9821 2 30.3338 2C14.6855 2 2 14.6855 2 30.3338C2 45.9821 14.6855 58.6675 30.3338 58.6675ZM30.3338 60.6675C47.0866 60.6675 60.6675 47.0866 60.6675 30.3338C60.6675 13.5809 47.0866 0 30.3338 0C13.5809 0 0 13.5809 0 30.3338C0 47.0866 13.5809 60.6675 30.3338 60.6675Z" fill="#CB8734"/>
<path d="M53.751 4.66675L62.0007 12.9164L53.751 21.1661L45.5013 12.9164L53.751 4.66675Z" fill="white"/>
<path fill-rule="evenodd" clip-rule="evenodd" d="M60.208 6.29289C60.5985 6.68342 60.5985 7.31658 60.208 7.70711L31.0409 36.8742C30.8534 37.0617 30.599 37.1671 30.3338 37.1671C30.0686 37.1671 29.8143 37.0617 29.6267 36.8742L17.9599 25.2074C17.5694 24.8168 17.5694 24.1837 17.9599 23.7931C18.3504 23.4026 18.9836 23.4026 19.3741 23.7931L30.3338 34.7529L58.7938 6.29289C59.1843 5.90237 59.8175 5.90237 60.208 6.29289Z" fill="#CB8734"/>
</svg>
