<svg width="62" height="62" viewBox="0 0 62 62" fill="none" xmlns="http://www.w3.org/2000/svg">
<path opacity="0.58" d="M0 0H62V62H0V0Z" fill="white"/>
<path d="M42.0003 35.333L38.6333 39.823L34.7812 38.54L36.1333 48H47.8673L49.2193 38.54L45.3673 39.823L42.0003 35.333ZM46.1333 46H37.8673L37.2193 41.46L39.3673 42.177L42.0003 38.667L44.6333 42.177L46.7812 41.46L46.1333 46Z" fill="#CB8734"/>
<path fill-rule="evenodd" clip-rule="evenodd" d="M38.67 39.9407L34.9031 38.686L36.22 47.9H47.7805L49.0974 38.686L45.3305 39.9407L42.0003 35.4997L38.67 39.9407ZM38.6333 39.823L34.7812 38.54L36.1333 48H47.8673L49.2193 38.54L45.3673 39.823L42.0003 35.333L38.6333 39.823ZM46.22 46.1H37.7805L37.0974 41.3139L39.3305 42.0593L42.0003 38.5004L44.67 42.0593L46.9031 41.3139L46.22 46.1ZM44.6333 42.177L42.0003 38.667L39.3673 42.177L37.2193 41.46L37.8673 46H46.1333L46.7812 41.46L44.6333 42.177Z" fill="white"/>
<path d="M42 30C35.383 30 30 35.383 30 42C30 48.617 35.383 54 42 54C48.617 54 54 48.617 54 42C54 35.383 48.617 30 42 30ZM42 52C36.486 52 32 47.514 32 42C32 36.486 36.486 32 42 32C47.514 32 52 36.486 52 42C52 47.514 47.514 52 42 52Z" fill="#CB8734"/>
<path fill-rule="evenodd" clip-rule="evenodd" d="M42 30.1C35.4382 30.1 30.1 35.4382 30.1 42C30.1 48.5618 35.4382 53.9 42 53.9C48.5618 53.9 53.9 48.5618 53.9 42C53.9 35.4382 48.5618 30.1 42 30.1ZM42 52.1C36.4308 52.1 31.9 47.5692 31.9 42C31.9 36.4308 36.4308 31.9 42 31.9C47.5692 31.9 52.1 36.4308 52.1 42C52.1 47.5692 47.5692 52.1 42 52.1ZM30 42C30 35.383 35.383 30 42 30C48.617 30 54 35.383 54 42C54 48.617 48.617 54 42 54C35.383 54 30 48.617 30 42ZM32 42C32 47.514 36.486 52 42 52C47.514 52 52 47.514 52 42C52 36.486 47.514 32 42 32C36.486 32 32 36.486 32 42Z" fill="white"/>
<path d="M54.908 33.5739C54.662 32.4819 54.11 31.4829 53.313 30.6859C52.516 29.8889 51.518 29.3369 50.426 29.0909C48.559 28.6689 46.789 27.9359 45.168 26.9129C43.275 25.7179 40.722 25.7179 38.831 26.9129C37.209 27.9349 35.439 28.6689 33.573 29.0909C32.48 29.3369 31.482 29.8889 30.685 30.6859C29.888 31.4829 29.336 32.4819 29.09 33.5729C28.668 35.4379 27.936 37.2079 26.912 38.8309C26.316 39.7769 26 40.8729 26 41.9999C26 43.1269 26.316 44.2229 26.914 45.1679C27.937 46.7919 28.67 48.5618 29.092 50.4258C29.338 51.5188 29.89 52.5169 30.687 53.3139C31.482 54.1099 32.48 54.6609 33.573 54.9089C35.441 55.3319 37.211 56.0639 38.832 57.0869C39.777 57.6839 40.873 57.9999 42 57.9999C43.127 57.9999 44.223 57.6838 45.168 57.0858C46.79 56.0638 48.56 55.3309 50.428 54.9079C51.521 54.6599 52.519 54.1089 53.314 53.3129C54.111 52.5159 54.663 51.5178 54.909 50.4258C55.331 48.5608 56.063 46.7909 57.087 45.1679C57.684 44.2229 58 43.1269 58 41.9999C58 40.8729 57.684 39.7769 57.086 38.8319C56.063 37.2079 55.33 35.4379 54.908 33.5739V33.5739ZM55.395 44.1019C54.249 45.9189 53.43 47.8989 52.957 49.9869C52.794 50.7099 52.429 51.3709 51.899 51.8999C51.371 52.4279 50.71 52.7939 49.986 52.9579C47.895 53.4319 45.915 54.2509 44.1 55.3959C42.848 56.1889 41.152 56.1889 39.898 55.3959C38.085 54.2509 36.104 53.4319 34.013 52.9579C33.289 52.7939 32.628 52.4289 32.1 51.8999C31.571 51.3709 31.205 50.7099 31.042 49.9859C30.569 47.8989 29.75 45.9199 28.604 44.1009C28.209 43.4749 28 42.7479 28 41.9999C28 41.2519 28.209 40.5249 28.605 39.8979C29.751 38.0809 30.57 36.1009 31.043 34.0129C31.206 33.2899 31.571 32.6289 32.101 32.0999C32.631 31.5709 33.291 31.2049 34.015 31.0419C36.105 30.5689 38.084 29.7489 39.9 28.6039C40.525 28.2089 41.252 27.9999 42 27.9999C42.748 27.9999 43.475 28.2089 44.102 28.6049C45.916 29.7499 47.896 30.5699 49.987 31.0429C50.71 31.2059 51.371 31.5709 51.9 32.1009C52.429 32.6309 52.795 33.2909 52.958 34.0149C53.431 36.1019 54.25 38.0809 55.396 39.8999C55.791 40.5249 56 41.2519 56 41.9999C56 42.7479 55.791 43.4749 55.395 44.1019V44.1019Z" fill="#CB8734"/>
<path fill-rule="evenodd" clip-rule="evenodd" d="M50.404 29.1884L50.404 29.1884C48.5258 28.7639 46.7452 28.0265 45.1146 26.9974L45.168 26.9129C46.789 27.9359 48.559 28.6689 50.426 29.0909C51.518 29.3369 52.516 29.8889 53.313 30.6859C54.11 31.4829 54.662 32.4819 54.908 33.5739L54.8104 33.5958C54.5686 32.5224 54.026 31.5403 53.2423 30.7566C52.4585 29.9728 51.4774 29.4302 50.404 29.1884ZM57.086 38.8319C56.063 37.2079 55.33 35.4379 54.908 33.5739L54.8105 33.5959C55.235 35.471 55.9724 37.2516 57.0014 38.8852L57.0015 38.8853C57.5893 39.8142 57.9 40.8916 57.9 41.9999C57.9 43.1081 57.5893 44.1856 57.0025 45.1144L57.0024 45.1145C55.9724 46.7471 55.236 48.5277 54.8115 50.4038L54.8114 50.4039C54.5696 51.4772 54.027 52.4584 53.2433 53.2421L53.2432 53.2422C52.4616 54.0248 51.4805 54.5665 50.4059 54.8103C48.5268 55.2358 46.7463 55.9732 45.1147 57.0012L45.1145 57.0013C44.1857 57.5891 43.1082 57.8999 42 57.8999C40.8918 57.8999 39.8143 57.5891 38.8854 57.0023L38.8854 57.0023C37.2547 55.9732 35.4742 55.2368 33.5951 54.8113C32.5206 54.5675 31.5394 54.0258 30.7578 53.2432L30.7577 53.2431C29.974 52.4594 29.4314 51.4782 29.1896 50.4039L29.1895 50.4038C28.765 48.5287 28.0276 46.7481 26.9986 45.1146L26.9985 45.1144C26.4107 44.1855 26.1 43.1081 26.1 41.9999C26.1 40.8916 26.4107 39.8142 26.9966 38.8842C28.0267 37.2516 28.763 35.471 29.1875 33.5949L29.1876 33.5948C29.4294 32.5225 29.972 31.5403 30.7557 30.7566C31.5395 29.9728 32.5206 29.4302 33.595 29.1884L33.5951 29.1884C35.4722 28.7639 37.2528 28.0255 38.8843 26.9975L38.8844 26.9974C40.7428 25.823 43.2542 25.823 45.1146 26.9974L45.168 26.9129C43.275 25.7179 40.722 25.7179 38.831 26.9129C37.209 27.9349 35.439 28.6689 33.573 29.0909C32.48 29.3369 31.482 29.8889 30.685 30.6859C29.888 31.4829 29.336 32.4819 29.09 33.5729C28.668 35.4379 27.936 37.2079 26.912 38.8309C26.316 39.7769 26 40.8729 26 41.9999C26 43.1269 26.316 44.2229 26.914 45.1679C27.937 46.7919 28.67 48.5618 29.092 50.4258C29.338 51.5189 29.89 52.5168 30.687 53.3139C31.482 54.1098 32.48 54.6609 33.573 54.9089C35.441 55.3319 37.211 56.0639 38.832 57.0869C39.777 57.6839 40.873 57.9999 42 57.9999C43.127 57.9999 44.223 57.6838 45.168 57.0858C46.79 56.0639 48.56 55.3309 50.428 54.9079C51.521 54.6599 52.519 54.1089 53.314 53.3129C54.111 52.5159 54.663 51.5178 54.909 50.4258C55.331 48.5609 56.063 46.7908 57.087 45.1679C57.684 44.2229 58 43.1269 58 41.9999C58 40.8729 57.684 39.7769 57.086 38.8319ZM55.395 44.1019C54.249 45.9189 53.43 47.8989 52.957 49.9869C52.794 50.7099 52.429 51.3709 51.899 51.8999C51.371 52.4279 50.71 52.7939 49.986 52.9579C47.895 53.4319 45.915 54.2509 44.1 55.3959C42.848 56.1889 41.152 56.1889 39.898 55.3959C38.085 54.2509 36.104 53.4319 34.013 52.9579C33.289 52.7939 32.628 52.4289 32.1 51.8999C31.571 51.3709 31.205 50.7099 31.042 49.9859C30.569 47.8989 29.75 45.9199 28.604 44.1009C28.209 43.4749 28 42.7479 28 41.9999C28 41.2519 28.209 40.5248 28.605 39.8979C29.751 38.0808 30.57 36.1009 31.043 34.0129C31.206 33.2899 31.571 32.6288 32.101 32.0999C32.631 31.5709 33.291 31.2049 34.015 31.0419C36.105 30.5689 38.084 29.7489 39.9 28.6039C40.525 28.2089 41.252 27.9999 42 27.9999C42.748 27.9999 43.475 28.2089 44.102 28.6049C45.916 29.7499 47.896 30.5699 49.987 31.0429C50.71 31.2059 51.371 31.5709 51.9 32.1009C52.429 32.6309 52.795 33.2909 52.958 34.0149C53.431 36.1019 54.25 38.0809 55.396 39.8999C55.791 40.5249 56 41.2519 56 41.9999C56 42.7479 55.791 43.4749 55.395 44.1019ZM55.4805 39.8464C55.8858 40.4876 56.1 41.2332 56.1 41.9999C56.1 42.7665 55.8858 43.5121 55.4795 44.1553C54.3397 45.9626 53.525 47.932 53.0546 50.0088C52.8874 50.7505 52.513 51.4283 51.9696 51.9706C51.4284 52.5118 50.7506 52.8872 50.0081 53.0554C47.9282 53.5269 45.9588 54.3415 44.1535 55.4803C42.8688 56.294 41.1312 56.294 39.8446 55.4804C38.0413 54.3415 36.0709 53.5269 33.9909 53.0554C33.2484 52.8872 32.5705 52.5128 32.0292 51.9705C31.4871 51.4283 31.1117 50.7506 30.9445 50.008C30.474 47.9321 29.6594 45.9636 28.5194 44.1542C28.1142 43.5121 27.9 42.7665 27.9 41.9999C27.9 41.2332 28.1142 40.4876 28.5204 39.8445C29.6603 38.0371 30.475 36.0677 30.9455 33.9908C31.1127 33.2492 31.4871 32.5713 32.0304 32.0291C32.5735 31.487 33.2503 31.1115 33.993 30.9443C36.0719 30.4738 38.0402 29.6582 39.8466 28.5193C40.4878 28.1141 41.2333 27.8999 42 27.8999C42.7667 27.8999 43.5122 28.1141 44.1554 28.5203C45.9598 29.6592 47.9292 30.4748 50.0091 30.9453C50.7507 31.1125 51.4285 31.4869 51.9708 32.0302C52.5129 32.5733 52.8883 33.2501 53.0556 33.9929C53.526 36.0687 54.3406 38.0371 55.4805 39.8464Z" fill="white"/>
<path d="M49.414 0H16C14.897 0 14 0.897 14 2V16H7.531L1.813 22.862L4.038 27.313L6 39.082V42.382L5.917 42.424C4.734 43.016 4 44.203 4 45.524C4 45.968 4.084 46.402 4.248 46.812L5.523 50H4C1.794 50 0 51.794 0 54V60C0 61.103 0.897 62 2 62H60C61.103 62 62 61.103 62 60V12.586L49.414 0ZM52 14V16H24V8H48V14H52ZM50 12V3.414L58.586 12H50ZM16.865 22H12V18H13.531L16.865 22ZM14.153 38H7.847L6.18 28H15.819L14.153 38ZM14 40V42H8V40H14ZM5.618 26L4.618 24H10V26H5.618ZM16.382 26H12V24H17.382L16.382 26ZM8.469 18H10V22H5.135L8.469 18ZM6.104 46.069C6.035 45.896 6 45.713 6 45.524C6 44.965 6.311 44.462 6.813 44.212L7.238 44H14.763L15.189 44.213C15.689 44.463 16 44.966 16 45.524C16 45.712 15.965 45.895 15.895 46.07L14.323 50H7.677L6.104 46.069ZM4 52H18C19.103 52 20 52.897 20 54L20.001 56H2V54C2 52.897 2.897 52 4 52V52ZM2 60V58H20.001L20.002 60H2ZM22 60V54C22 51.794 20.206 50 18 50H16.477L17.751 46.813C17.916 46.402 18 45.969 18 45.524C18 44.203 17.266 43.015 16.084 42.423L16 42.382V39.082L17.961 27.313L20.186 22.862L16 17.838V2H48V6H22V18H54V14H60V60H22Z" fill="#CB8734"/>
<path fill-rule="evenodd" clip-rule="evenodd" d="M4 50C1.794 50 0 51.794 0 54V60C0 61.103 0.897 62 2 62H60C61.103 62 62 61.103 62 60V12.586L49.414 0H16C14.897 0 14 0.897 14 2V16H7.531L1.813 22.862L4.038 27.313L6 39.082V42.382L5.917 42.424C4.734 43.016 4 44.203 4 45.524C4 45.968 4.084 46.402 4.248 46.812L5.523 50H4ZM1.93169 22.8758L4.13417 27.2817L6.1 39.0737V42.4435L5.96215 42.5132C4.81295 43.0883 4.1 44.2409 4.1 45.524C4.1 45.9552 4.18156 46.3766 4.34085 46.7749L5.67069 50.1H4C1.84923 50.1 0.1 51.8492 0.1 54V60C0.1 61.0478 0.952228 61.9 2 61.9H60C61.0478 61.9 61.9 61.0478 61.9 60V12.6274L49.3726 0.1H16C14.9522 0.1 14.1 0.952228 14.1 2V16.1H7.57784L1.93169 22.8758ZM52.1 13.9V16.1H23.9V7.9H48.1V13.9H52.1ZM49.9 12.1V3.17258L58.8274 12.1H49.9ZM17.0785 22.1H11.9V17.9H13.5778L17.0785 22.1ZM14.2377 38.1H7.76229L6.06195 27.9H15.937L14.2377 38.1ZM14.1 39.9V42.1H7.9V39.9H14.1ZM5.5562 26.1L4.4562 23.9H10.1V26.1H5.5562ZM16.4438 26.1H11.9V23.9H17.5438L16.4438 26.1ZM8.42217 17.9H10.1V22.1H4.92147L8.42217 17.9ZM6.01112 46.106C5.93736 45.9211 5.9 45.7255 5.9 45.524C5.9 44.927 6.23248 44.3894 6.76842 44.1225L7.21444 43.9H14.7866L15.2337 44.1236C15.7675 44.3905 16.1 44.9281 16.1 45.524C16.1 45.7246 16.0626 45.9203 15.9878 46.1071L14.3907 50.1H7.60931L6.01112 46.106ZM6.813 44.212C6.311 44.462 6 44.965 6 45.524C6 45.713 6.035 45.896 6.104 46.069L7.677 50H14.323L15.895 46.07C15.965 45.895 16 45.712 16 45.524C16 44.966 15.689 44.463 15.189 44.213L14.763 44H7.238L6.813 44.212ZM20.101 56.1H1.9V54C1.9 52.8418 2.84177 51.9 4 51.9H18C19.1582 51.9 20.1 52.8418 20.1 54L20.101 56.1ZM1.9 60.1V57.9H20.101L20.1021 60.1H1.9ZM21.9 60.1V54C21.9 51.8492 20.1508 50.1 18 50.1H16.3293L17.6581 46.7759C17.8184 46.3767 17.9 45.9562 17.9 45.524C17.9 44.241 17.1876 43.0877 16.0396 42.5126C16.0395 42.5125 16.0398 42.5127 16.0396 42.5126L15.9 42.4445V39.0737L17.8648 27.2817L20.0673 22.8758L15.9 17.8742V1.9H48.1V6.1H22.1V17.9H53.9V13.9H60.1V60.1H21.9ZM54 18H22V6H48V2H16V17.838L20.186 22.862L17.961 27.313L16 39.082V42.382L16.084 42.423C17.266 43.015 18 44.203 18 45.524C18 45.969 17.916 46.402 17.751 46.813L16.477 50H18C20.206 50 22 51.794 22 54V60H60V14H54V18ZM50 12V3.414L58.586 12H50ZM16.865 22L13.531 18H12V22H16.865ZM15.819 28L14.153 38H7.847L6.18 28H15.819ZM10 24V26H5.618L4.618 24H10ZM16.382 26L17.382 24H12V26H16.382ZM8.469 18H10V22H5.135L8.469 18ZM2 56V54C2 52.897 2.897 52 4 52H18C19.103 52 20 52.897 20 54L20.001 56H2ZM2 60V58H20.001L20.002 60H2ZM52 14H48V8H24V16H52V14ZM14 40H8V42H14V40Z" fill="white"/>
</svg>
