<svg width="62" height="62" viewBox="0 0 62 62" fill="none" xmlns="http://www.w3.org/2000/svg">
<path d="M0 0H62V62H0V0Z" fill="white"/>
<path d="M41.8984 38.6289C41.2298 38.6289 40.6875 39.171 40.6875 39.8398V48.1953C40.6875 51.5339 37.9714 54.25 34.6328 54.25H21.5586C20.89 54.25 20.3481 54.7917 20.3476 55.4601L20.3459 57.8677L17.4557 54.9775C17.2686 54.548 16.8404 54.25 16.3451 54.25H8.47656C5.13801 54.25 2.42188 51.5339 2.42188 48.1953V29.5469C2.42188 26.2083 5.13801 23.4922 8.47656 23.4922H20.707C21.3757 23.4922 21.918 22.9501 21.918 22.2812C21.918 21.6124 21.3757 21.0703 20.707 21.0703H8.47656C3.80259 21.0703 0 24.8729 0 29.5469V48.1953C0 52.8693 3.80259 56.6719 8.47656 56.6719H15.725L20.6984 61.6453C20.9301 61.877 21.2397 62 21.5549 62C21.7108 62 21.8681 61.9698 22.0176 61.908C22.4702 61.7208 22.7653 61.2795 22.7656 60.7899L22.7685 56.6719H34.6328C39.3068 56.6719 43.1094 52.8693 43.1094 48.1953V39.8398C43.1094 39.171 42.5671 38.6289 41.8984 38.6289Z" fill="#CB8734"/>
<path fill-rule="evenodd" clip-rule="evenodd" d="M20.5456 58.3502L17.2874 55.0922L17.2723 55.0574C17.116 54.6985 16.7583 54.45 16.3451 54.45H8.47656C5.02755 54.45 2.22187 51.6443 2.22187 48.1953V29.5469C2.22187 26.0979 5.02755 23.2922 8.47656 23.2922H20.707C21.2653 23.2922 21.718 22.8396 21.718 22.2812C21.718 21.7229 21.2653 21.2703 20.707 21.2703H8.47656C3.91304 21.2703 0.2 24.9834 0.2 29.5469V48.1953C0.2 52.7588 3.91304 56.4719 8.47656 56.4719H15.8078L20.8399 61.5039C21.0332 61.6973 21.2916 61.8 21.5549 61.8C21.685 61.8 21.8163 61.7748 21.9412 61.7232C22.319 61.5669 22.5653 61.1985 22.5656 60.7898L22.5687 56.4719H34.6328C39.1963 56.4719 42.9094 52.7588 42.9094 48.1953V39.8398C42.9094 39.2815 42.4567 38.8289 41.8984 38.8289C41.3402 38.8289 40.8875 39.2815 40.8875 39.8398V48.1953C40.8875 51.6443 38.0818 54.45 34.6328 54.45H21.5586C21.0004 54.45 20.548 54.9022 20.5476 55.4602L20.5456 58.3502ZM17.4557 54.9775C17.2686 54.548 16.8404 54.25 16.3451 54.25H8.47656C5.13801 54.25 2.42188 51.5339 2.42188 48.1953V29.5469C2.42188 26.2083 5.13801 23.4922 8.47656 23.4922H20.707C21.3757 23.4922 21.918 22.9501 21.918 22.2812C21.918 21.6124 21.3757 21.0703 20.707 21.0703H8.47656C3.80259 21.0703 0 24.8729 0 29.5469V48.1953C0 52.8693 3.80259 56.6719 8.47656 56.6719H15.725L20.6984 61.6453C20.9301 61.877 21.2397 62 21.5549 62C21.7108 62 21.8681 61.9698 22.0176 61.908C22.4702 61.7208 22.7653 61.2795 22.7656 60.7899L22.7685 56.6719H34.6328C39.3068 56.6719 43.1094 52.8693 43.1094 48.1953V39.8398C43.1094 39.171 42.5671 38.6289 41.8984 38.6289C41.2298 38.6289 40.6875 39.171 40.6875 39.8398V48.1953C40.6875 51.5339 37.9714 54.25 34.6328 54.25H21.5586C20.89 54.25 20.3481 54.7917 20.3476 55.4601L20.3459 57.8677L17.4557 54.9775Z" fill="white"/>
<path d="M44.3996 0H41.3349C31.6299 0 23.7344 7.89555 23.7344 17.6005C23.7344 27.3054 31.6299 35.2009 41.3347 35.2009H44.3995C45.9143 35.2009 47.4135 35.0084 48.8667 34.6282L53.394 39.153C53.6256 39.3844 53.9352 39.5074 54.2502 39.5074C54.4063 39.5074 54.5638 39.4773 54.7135 39.4152C55.166 39.2277 55.4609 38.7862 55.4609 38.2965V31.2905C57.3777 29.7382 58.97 27.7773 60.0874 25.5867C61.3566 23.0988 62 20.4118 62 17.6005C62 7.89555 54.1044 0 44.3996 0ZM53.5214 29.7328C53.2178 29.9615 53.0391 30.3197 53.0391 30.7001V35.3743L50.0758 32.4126C49.8452 32.1822 49.5359 32.0581 49.2196 32.0581C49.101 32.0581 48.9811 32.0757 48.8641 32.1116C47.4227 32.5546 45.9207 32.7791 44.3996 32.7791H41.3349C32.9652 32.7791 26.1562 25.97 26.1562 17.6005C26.1562 9.23098 32.9654 2.42188 41.3349 2.42188H44.3996C52.7691 2.42188 59.5781 9.23098 59.5781 17.6005C59.5781 22.4117 57.3706 26.8338 53.5214 29.7328Z" fill="#CB8734"/>
<path fill-rule="evenodd" clip-rule="evenodd" d="M48.9269 34.4057L53.5353 39.0115C53.5353 39.0115 53.5353 39.0115 53.5353 39.0115C53.7287 39.2047 53.9871 39.3074 54.2502 39.3074C54.3805 39.3074 54.5119 39.2823 54.6369 39.2304C55.0146 39.0739 55.2609 38.7053 55.2609 38.2965V31.1951L55.3351 31.1351C57.2303 29.6003 58.8046 27.6613 59.9093 25.4959C61.164 23.0362 61.8 20.3804 61.8 17.6005C61.8 8.00601 53.994 0.2 44.3996 0.2H41.3349C31.7404 0.2 23.9344 8.00601 23.9344 17.6005C23.9344 27.195 31.7404 35.0009 41.3347 35.0009H44.3995C45.8973 35.0009 47.3795 34.8106 48.816 34.4347L48.9269 34.4057ZM53.394 39.153L48.8667 34.6282C47.4135 35.0084 45.9143 35.2009 44.3995 35.2009H41.3347C31.6299 35.2009 23.7344 27.3054 23.7344 17.6005C23.7344 7.89555 31.6299 0 41.3349 0H44.3996C54.1044 0 62 7.89555 62 17.6005C62 20.4118 61.3566 23.0988 60.0874 25.5867C58.97 27.7773 57.3777 29.7382 55.4609 31.2905V38.2965C55.4609 38.7862 55.166 39.2277 54.7135 39.4152C54.5638 39.4773 54.4063 39.5074 54.2502 39.5074C53.9352 39.5074 53.6256 39.3844 53.394 39.153ZM50.0758 32.4126C49.8452 32.1822 49.5359 32.0581 49.2196 32.0581C49.101 32.0581 48.9811 32.0757 48.8641 32.1116C47.4227 32.5546 45.9207 32.7791 44.3996 32.7791H41.3349C32.9652 32.7791 26.1562 25.97 26.1562 17.6005C26.1562 9.23098 32.9654 2.42188 41.3349 2.42188H44.3996C52.7691 2.42188 59.5781 9.23098 59.5781 17.6005C59.5781 22.4117 57.3706 26.8338 53.5214 29.7328C53.2178 29.9615 53.0391 30.3197 53.0391 30.7001V35.3743L50.0758 32.4126ZM53.6417 29.8925C53.3883 30.0835 53.2391 30.3825 53.2391 30.7001V35.8569L49.9344 32.5541C49.9344 32.554 49.9344 32.5541 49.9344 32.5541C49.7419 32.3618 49.4837 32.2581 49.2196 32.2581C49.1207 32.2581 49.0206 32.2728 48.9229 32.3028C47.4623 32.7517 45.9404 32.9791 44.3996 32.9791H41.3349C32.8548 32.9791 25.9562 26.0805 25.9562 17.6005C25.9562 9.12052 32.8549 2.22187 41.3349 2.22187H44.3996C52.8796 2.22187 59.7781 9.12052 59.7781 17.6005C59.7781 22.4746 57.541 26.9558 53.6417 29.8925Z" fill="white"/>
<path d="M48.3201 13.2502C48.1454 10.7151 46.1018 8.67157 43.5666 8.49683C42.1294 8.39814 40.7579 8.88287 39.7082 9.86289C38.6728 10.8293 38.0791 12.1955 38.0791 13.6112C38.0791 14.28 38.6214 14.8222 39.29 14.8222C39.9587 14.8222 40.501 14.28 40.501 13.6112C40.501 12.8533 40.8064 12.1508 41.3607 11.6334C41.9146 11.1164 42.6385 10.8606 43.4002 10.9131C44.7356 11.0052 45.812 12.0816 45.9041 13.4169C45.9971 14.7655 45.1122 15.9573 43.8003 16.2508C42.7373 16.4887 41.995 17.4124 41.995 18.497V21.4063C41.995 22.0751 42.5373 22.6172 43.206 22.6172C43.8748 22.6172 44.4169 22.0751 44.4168 21.4063V18.5937C46.8568 18.0043 48.4939 15.7715 48.3201 13.2502Z" fill="#CB8734"/>
<path fill-rule="evenodd" clip-rule="evenodd" d="M44.4168 21.4063V18.5937C46.8568 18.0043 48.4939 15.7715 48.3201 13.2502C48.1454 10.7151 46.1018 8.67157 43.5666 8.49683C42.1294 8.39814 40.7579 8.88287 39.7082 9.86289C38.6728 10.8293 38.0791 12.1955 38.0791 13.6112C38.0791 14.28 38.6214 14.8222 39.29 14.8222C39.9587 14.8222 40.501 14.28 40.501 13.6112C40.501 12.8533 40.8064 12.1508 41.3607 11.6334C41.9146 11.1164 42.6385 10.8606 43.4002 10.9131C44.7356 11.0052 45.812 12.0816 45.9041 13.4169C45.9971 14.7655 45.1122 15.9573 43.8003 16.2508C42.7373 16.4887 41.995 17.4124 41.995 18.497V21.4063C41.995 22.0751 42.5373 22.6172 43.206 22.6172C43.8748 22.6172 44.4169 22.0751 44.4168 21.4063Z" fill="white"/>
<path d="M44.0622 25.34C43.837 25.1148 43.5245 24.9852 43.2061 24.9852C42.8876 24.9852 42.5752 25.1148 42.3499 25.34C42.1247 25.5653 41.9951 25.8777 41.9951 26.1962C41.9951 26.5159 42.1248 26.8283 42.3499 27.0535C42.5752 27.2787 42.8876 27.4071 43.2061 27.4071C43.5245 27.4071 43.837 27.2787 44.0622 27.0535C44.2874 26.8271 44.417 26.5159 44.417 26.1962C44.417 25.8777 44.2873 25.5653 44.0622 25.34Z" fill="#CB8734"/>
<path fill-rule="evenodd" clip-rule="evenodd" d="M43.9209 25.4814C43.7331 25.2936 43.4716 25.1852 43.2062 25.1852C42.9409 25.1852 42.6793 25.2936 42.4915 25.4814C42.3038 25.6692 42.1953 25.9308 42.1953 26.1961C42.1953 26.4627 42.3039 26.7243 42.4915 26.912C42.4916 26.9121 42.4916 26.9121 42.4916 26.9121L42.3501 27.0535M43.9208 26.9122C43.7334 27.0995 43.472 27.2071 43.2062 27.2071C42.9404 27.2071 42.679 27.0995 42.4916 26.9121M43.9208 26.9122C43.9207 26.9123 43.9206 26.9124 43.9206 26.9124L44.0624 27.0535L43.921 26.912C43.9209 26.9121 43.9208 26.9122 43.9208 26.9122ZM43.9208 26.9122C44.1089 26.723 44.2172 26.4624 44.2172 26.1961C44.2172 25.9308 44.1087 25.6692 43.921 25.4814L44.0623 25.3401L43.9209 25.4814C43.9209 25.4814 43.9209 25.4814 43.921 25.4814C43.9209 25.4814 43.9209 25.4814 43.9209 25.4814" fill="white"/>
<path d="M33.3008 37.5391H7.75C7.08132 37.5391 6.53906 38.0812 6.53906 38.75C6.53906 39.4188 7.08132 39.9609 7.75 39.9609H33.3008C33.9696 39.9609 34.5117 39.4188 34.5117 38.75C34.5117 38.0812 33.9695 37.5391 33.3008 37.5391Z" fill="#CB8734"/>
<path fill-rule="evenodd" clip-rule="evenodd" d="M33.3008 37.7391H7.75C7.19176 37.7391 6.73906 38.1917 6.73906 38.75C6.73906 39.3083 7.19176 39.7609 7.75 39.7609H33.3008C33.8591 39.7609 34.3117 39.3083 34.3117 38.75C34.3117 38.1917 33.859 37.7391 33.3008 37.7391ZM7.75 37.5391H33.3008C33.9695 37.5391 34.5117 38.0812 34.5117 38.75C34.5117 39.4188 33.9696 39.9609 33.3008 39.9609H7.75C7.08132 39.9609 6.53906 39.4188 6.53906 38.75C6.53906 38.0812 7.08132 37.5391 7.75 37.5391Z" fill="white"/>
<path d="M34.1568 44.6751C33.9317 44.4499 33.6193 44.3203 33.3008 44.3203C32.9823 44.3203 32.6699 44.4499 32.4446 44.6751C32.2193 44.9004 32.0898 45.2128 32.0898 45.5312C32.0898 45.8497 32.2194 46.1621 32.4446 46.3874C32.6699 46.6126 32.9823 46.7422 33.3008 46.7422C33.6193 46.7422 33.9317 46.6126 34.1568 46.3874C34.3821 46.1621 34.5117 45.8509 34.5117 45.5312C34.5117 45.2128 34.382 44.9004 34.1568 44.6751Z" fill="#CB8734"/>
<path fill-rule="evenodd" clip-rule="evenodd" d="M34.0154 44.8165L34.0153 44.8165C33.8277 44.6288 33.5662 44.5203 33.3008 44.5203C33.0354 44.5203 32.7738 44.6288 32.5861 44.8165L32.586 44.8166C32.3982 45.0043 32.2898 45.2658 32.2898 45.5312C32.2898 45.7966 32.3983 46.0582 32.5861 46.246C32.7738 46.4337 33.0354 46.5422 33.3008 46.5422C33.5662 46.5422 33.8277 46.4337 34.0153 46.246L34.0154 46.2459C34.2034 46.0581 34.3117 45.7977 34.3117 45.5312C34.3117 45.2659 34.2032 45.0044 34.0154 44.8165ZM32.4446 44.6751C32.6699 44.4499 32.9823 44.3203 33.3008 44.3203C33.6193 44.3203 33.9317 44.4499 34.1568 44.6751C34.382 44.9004 34.5117 45.2128 34.5117 45.5312C34.5117 45.8509 34.3821 46.1621 34.1568 46.3874C33.9317 46.6126 33.6193 46.7422 33.3008 46.7422C32.9823 46.7422 32.6699 46.6126 32.4446 46.3874C32.2194 46.1621 32.0898 45.8497 32.0898 45.5312C32.0898 45.2128 32.2193 44.9004 32.4446 44.6751Z" fill="white"/>
<path d="M28.5378 44.3203H7.75C7.08132 44.3203 6.53906 44.8624 6.53906 45.5312C6.53906 46.2001 7.08132 46.7422 7.75 46.7422H28.5378C29.2066 46.7422 29.7487 46.2001 29.7487 45.5312C29.7487 44.8624 29.2065 44.3203 28.5378 44.3203Z" fill="#CB8734"/>
<path fill-rule="evenodd" clip-rule="evenodd" d="M28.5378 44.5203H7.75C7.19176 44.5203 6.73906 44.9729 6.73906 45.5312C6.73906 46.0896 7.19176 46.5422 7.75 46.5422H28.5378C29.0961 46.5422 29.5487 46.0896 29.5487 45.5312C29.5487 44.9729 29.096 44.5203 28.5378 44.5203ZM7.75 44.3203H28.5378C29.2065 44.3203 29.7487 44.8624 29.7487 45.5312C29.7487 46.2001 29.2066 46.7422 28.5378 46.7422H7.75C7.08132 46.7422 6.53906 46.2001 6.53906 45.5312C6.53906 44.8624 7.08132 44.3203 7.75 44.3203Z" fill="white"/>
<path d="M25.4297 30.7578H7.75C7.08132 30.7578 6.53906 31.2999 6.53906 31.9688C6.53906 32.6376 7.08132 33.1797 7.75 33.1797H25.4297C26.0985 33.1797 26.6406 32.6376 26.6406 31.9688C26.6406 31.2999 26.0984 30.7578 25.4297 30.7578Z" fill="#CB8734"/>
<path fill-rule="evenodd" clip-rule="evenodd" d="M25.4297 30.9578H7.75C7.19176 30.9578 6.73906 31.4104 6.73906 31.9688C6.73906 32.5271 7.19176 32.9797 7.75 32.9797H25.4297C25.988 32.9797 26.4406 32.5271 26.4406 31.9688C26.4406 31.4104 25.9879 30.9578 25.4297 30.9578ZM7.75 30.7578H25.4297C26.0984 30.7578 26.6406 31.2999 26.6406 31.9688C26.6406 32.6376 26.0985 33.1797 25.4297 33.1797H7.75C7.08132 33.1797 6.53906 32.6376 6.53906 31.9688C6.53906 31.2999 7.08132 30.7578 7.75 30.7578Z" fill="white"/>
</svg>
