<svg width="147" height="20" viewBox="0 0 147 20" fill="none" xmlns="http://www.w3.org/2000/svg">
<path d="M83.6354 19.3833C83.1003 19.3833 82.6565 19.2071 82.3041 18.8547C81.9516 18.4957 81.782 18.0585 81.782 17.5298C81.782 17.0012 81.9516 16.5574 82.3041 16.205C82.6565 15.8526 83.1003 15.6763 83.6354 15.6763C83.9552 15.6763 84.2554 15.7481 84.5296 15.9048C84.8037 16.0549 85.019 16.2572 85.1757 16.5182L84.386 16.9686C84.3207 16.8446 84.2163 16.7467 84.0858 16.6749C83.9487 16.5966 83.7986 16.5639 83.6354 16.5639C83.3483 16.5639 83.1199 16.6488 82.9436 16.8315C82.774 17.0077 82.6826 17.2427 82.6826 17.5298C82.6826 17.817 82.774 18.0519 82.9436 18.2282C83.1199 18.4044 83.3483 18.4957 83.6354 18.4957C83.7986 18.4957 83.9487 18.4566 84.0858 18.3848C84.2163 18.313 84.3207 18.2086 84.386 18.0846L85.1757 18.5414C85.019 18.8025 84.8037 19.0048 84.5296 19.1549C84.2554 19.305 83.9618 19.3833 83.6354 19.3833ZM95.272 18.8482C94.913 19.2006 94.4692 19.3833 93.9471 19.3833C93.425 19.3833 92.9877 19.2006 92.6288 18.8482C92.2633 18.4892 92.0871 18.0519 92.0871 17.5298C92.0871 17.0077 92.2633 16.5705 92.6288 16.2115C92.9877 15.8526 93.425 15.6763 93.9471 15.6763C94.4692 15.6763 94.913 15.8526 95.272 16.2115C95.6309 16.5705 95.8137 17.0077 95.8137 17.5298C95.8137 18.0519 95.6309 18.4892 95.272 18.8482ZM93.2618 18.2216C93.4446 18.4044 93.673 18.4957 93.9471 18.4957C94.2212 18.4957 94.4496 18.4044 94.6324 18.2216C94.8151 18.0389 94.9065 17.8105 94.9065 17.5298C94.9065 17.2492 94.8151 17.0143 94.6324 16.838C94.4496 16.6553 94.2212 16.5639 93.9471 16.5639C93.673 16.5639 93.4446 16.6553 93.2618 16.838C93.0791 17.0143 92.9877 17.2492 92.9877 17.5298C92.9877 17.8105 93.0791 18.0389 93.2618 18.2216ZM106.667 15.7481V19.305H105.766V17.3928L104.898 18.8155H104.807L103.952 17.3993V19.305H103.038V15.7481H103.952L104.853 17.2688L105.766 15.7481H106.667ZM115.419 15.7481C115.778 15.7481 116.078 15.8656 116.326 16.1006C116.568 16.3355 116.692 16.6357 116.692 16.9947C116.692 17.3601 116.568 17.6538 116.326 17.8888C116.078 18.1237 115.778 18.2412 115.419 18.2412H114.949V19.305H114.035V15.7481H115.419ZM115.419 17.3732C115.523 17.3732 115.608 17.3406 115.673 17.2688C115.745 17.197 115.778 17.1056 115.778 16.9947C115.778 16.8837 115.745 16.7924 115.673 16.7206C115.608 16.6553 115.523 16.6161 115.419 16.6161H114.949V17.3732H115.419ZM125.737 19.305L125.561 18.796H124.353L124.203 19.305H123.218L124.347 15.7481H125.496L126.67 19.305H125.737ZM124.588 18.0128H125.306L124.941 16.7989L124.588 18.0128ZM135.696 15.7481H136.597V19.305H135.899L134.646 17.5168V19.305H133.738V15.7481H134.443L135.696 17.5364V15.7481ZM147 15.7481L145.799 17.941V19.305H144.892V17.9475L143.691 15.7481H144.709L145.342 17.0665L145.975 15.7481H147Z" fill="#2B2A28"/>
<path fill-rule="evenodd" clip-rule="evenodd" d="M101.929 0.0391579L111.758 11.0361H108.031L98.2023 0.0391579H101.929Z" fill="#CB8734"/>
<path fill-rule="evenodd" clip-rule="evenodd" d="M112.887 0.0391579L122.715 11.0361H118.995L109.167 0.0391579H112.887Z" fill="#CB8734"/>
<path fill-rule="evenodd" clip-rule="evenodd" d="M123.877 0.0391579L133.706 11.0361H129.979L120.15 0.0391579H123.877Z" fill="#CB8734"/>
<path fill-rule="evenodd" clip-rule="evenodd" d="M140.93 7.2769L144.285 11.0361H141.289L137.928 7.2769L135.507 4.60762H143.032C143.567 4.60762 144.011 4.17035 144.011 3.63519C144.011 3.10655 143.567 2.66276 143.032 2.66276H133.98L131.311 0H143.032C145.036 0 146.674 1.63812 146.674 3.63519C146.674 5.63879 145.036 7.2769 143.032 7.2769H140.93ZM0 0.0391582H7.55101H10.2138H17.7648V2.70192H10.2138V11.0361H7.55101V2.70192H0V0.0391582ZM31.3201 0.0391582H39.9479C42.813 0.0391582 45.156 2.38213 45.156 5.24068V5.82805C45.156 8.69313 42.813 11.0361 39.9479 11.0361H31.3201C28.455 11.0361 26.112 8.69313 26.112 5.82805V5.24068C26.112 2.38213 28.455 0.0391582 31.3201 0.0391582ZM31.3201 2.70192H39.9479C41.3446 2.70192 42.4867 3.84403 42.4867 5.24068V5.82805C42.4867 7.22469 41.3446 8.36681 39.9479 8.36681H31.3201C29.9234 8.36681 28.7813 7.22469 28.7813 5.82805V5.24068C28.7813 3.84403 29.9234 2.70192 31.3201 2.70192ZM57.8171 0.0391582V5.94552L57.8693 5.88679L67.0128 0.0391582H71.7836L64.4349 4.6272L73.5392 11.0361H68.7162L61.8504 6.23921L57.8171 8.75839V11.0361H55.1478V8.75839V0.0391582H57.8171ZM90.5469 0.0587373L100.598 11.0361H88.106L90.7688 8.36681H94.541L90.573 4.02677L84.1706 11.0361H80.7247L90.5469 0.0587373Z" fill="#2B2A28"/>
</svg>
